{"title":"Men in Black 3 2012 TS V2 XviD Feel-Free","uid":7322531,"size":1043725965,"categoryP":"video","categoryS":"movies","magnet":"?xt=urn:btih:d82d8ec30b40db9bcee3551afff0f7430547184a&amp;dn=Men+in+Black+3+2012+TS+V2+XviD+Feel-Free&amp;tr=udp%3A%2F%2Ftracker.openbittorrent.com%3A80&amp;tr=udp%3A%2F%2Fopen.demonii.com%3A1337&amp;tr=udp%3A%2F%2Ftracker.coppersurfer.tk%3A6969&amp;tr=udp%3A%2F%2Fexodus.desync.com%3A6969","seeders":1,"leechers":0,"uploader":"hiest","files":-1,"time":1338660426,"description":"8888888888                888      8888888888                       \n888                       888      888                              \n888                       888      888                              \n8888888  .d88b.   .d88b.  888      8888888 888d888 .d88b.   .d88b.  \n888     d8P  Y8b d8P  Y8b 888      888     888P&quot;  d8P  Y8b d8P  Y8b \n888     88888888 88888888 888      888     888    88888888 88888888 \n888     Y8b.     Y8b.     888      888     888    Y8b.     Y8b.     \n888      &quot;Y8888   &quot;Y8888  888      888     888     &quot;Y8888   &quot;Y8888  \n\n\nGenre:Action | Comedy | Sci-Fi\nLanguage:English\nIMDb: &lt;a href=&quot;\nhttp://www.imdb.com/title/tt1409024&quot; rel=&quot;nofollow&quot; target=&quot;_NEW&quot;&gt;\nhttp://www.imdb.com/title/tt1409024&lt;/a&gt;\nSource:Ludi.v.chornom.3.2012.D.HD-TS/ADTRG Thanks!\nEncoder:Tony\n\nFormat : AVI\nFormat/Info : Audio Video Interleave\nFile size : 993 MiB\nDuration : 1h 37mn\nOverall bit rate : 1 419 Kbps\n\nVideo\nID : 0\nFormat : MPEG-4 Visual\nFormat profile : Advanced Simple@L5\nFormat settings, BVOP : 2\nFormat settings, QPel : No\nFormat settings, GMC : No warppoints\nFormat settings, Matrix : Default (H.263)\nMuxing mode : Packed bitstream\nCodec ID : XVID\nCodec ID/Hint : XviD\nDuration : 1h 37mn\nBit rate : 1 217 Kbps\nWidth : 640 pixels\nHeight : 312 pixels\nDisplay aspect ratio : 2.051\nFrame rate : 23.976 fps\nColor space : YUV\nChroma subsampling : 4:2:0\nBit depth : 8 bits\nScan type : Progressive\nCompression mode : Lossy\nBits/(Pixel*Frame) : 0.254\nStream size : 852 MiB (86%)\nWriting library : XviD 64\n\nAudio\nID : 1\nFormat : AC-3\nFormat/Info : Audio Coding 3\nMode extension : CM (complete main)\nFormat settings, Endianness : Big\nCodec ID : 2000\nDuration : 1h 37mn\nBit rate mode : Constant\nBit rate : 192 Kbps\nChannel(s) : 2 channels\nChannel positions : Front: L R\nSampling rate : 48.0 KHz\nBit depth : 16 bits\nCompression mode : Lossy\nStream size : 134 MiB (14%)\nAlignment : Split accross interleaves\nInterleave, duration : 42 ms (1.00 video frame)\nInterleave, preload duration : 500 ms\n\n\nPlot:\nAgent J travels in time to MIB's early years in the 1960s, to stop an alien from assassinating his friend Agent K and changing history.\nScreen Shots:\n               &lt;a href=&quot;\nhttp://img62.imageshack.us/img62/1664/vlcsnap2012060120h18m50.png&quot; rel=&quot;nofollow&quot; target=&quot;_NEW&quot;&gt;\nhttp://img62.imageshack.us/img62/1664/vlcsnap2012060120h18m50.png&lt;/a&gt;\n &lt;a href=&quot;\nhttp://img43.imageshack.us/img43/495/vlcsnap2012060120h19m06.png&quot; rel=&quot;nofollow&quot; target=&quot;_NEW&quot;&gt;\nhttp://img43.imageshack.us/img43/495/vlcsnap2012060120h19m06.png&lt;/a&gt;\n &lt;a href=&quot;\nhttp://img577.imageshack.us/img577/5940/vlcsnap2012060120h20m05.png&quot; rel=&quot;nofollow&quot; target=&quot;_NEW&quot;&gt;\nhttp://img577.imageshack.us/img577/5940/vlcsnap2012060120h20m05.png&lt;/a&gt;\n &lt;a href=&quot;\nhttp://img818.imageshack.us/img818/2184/vlcsnap2012060120h21m12.png&quot; rel=&quot;nofollow&quot; target=&quot;_NEW&quot;&gt;\nhttp://img818.imageshack.us/img818/2184/vlcsnap2012060120h21m12.png&lt;/a&gt;\n &lt;a href=&quot;\nhttp://img406.imageshack.us/img406/5224/vlcsnap2012060120h22m00.png&quot; rel=&quot;nofollow&quot; target=&quot;_NEW&quot;&gt;\nhttp://img406.imageshack.us/img406/5224/vlcsnap2012060120h22m00.png&lt;/a&gt;\n &lt;a href=&quot;\nhttp://img213.imageshack.us/img213/8517/vlcsnap2012060120h21m53.png&quot; rel=&quot;nofollow&quot; target=&quot;_NEW&quot;&gt;\nhttp://img213.imageshack.us/img213/8517/vlcsnap2012060120h21m53.png&lt;/a&gt;\n\n\n8888888888                888      8888888888                       \n888                       888      888                              \n888                       888      888                              \n8888888  .d88b.   .d88b.  888      8888888 888d888 .d88b.   .d88b.  \n888     d8P  Y8b d8P  Y8b 888      888     888P&quot;  d8P  Y8b d8P  Y8b \n888     88888888 88888888 888      888     888    88888888 88888888 \n888     Y8b.     Y8b.     888      888     888    Y8b.     Y8b.     \n888      &quot;Y8888   &quot;Y8888  888      888     888     &quot;Y8888   &quot;Y8888  ","torrent":{"xt":"urn:btih:d82d8ec30b40db9bcee3551afff0f7430547184a","amp;dn":"Men+in+Black+3+2012+TS+V2+XviD+Feel-Free","amp;tr":["udp%3A%2F%2Ftracker.openbittorrent.com%3A80","udp%3A%2F%2Fopen.demonii.com%3A1337","udp%3A%2F%2Ftracker.coppersurfer.tk%3A6969","udp%3A%2F%2Fexodus.desync.com%3A6969"],"infoHash":"d82d8ec30b40db9bcee3551afff0f7430547184a","infoHashBuffer":{"type":"Buffer","data":[216,45,142,195,11,64,219,155,206,227,85,26,255,240,247,67,5,71,24,74]},"announce":[],"urlList":[]}}